<svg xmlns="http://www.w3.org/2000/svg" width="40" height="30.624" viewBox="0 0 40 30.624">
  <g id="组_1786" data-name="组 1786" transform="translate(-1308.244 -149.826)">
    <path id="路径_1286" data-name="路径 1286" d="M225.8,369.52a2.2,2.2,0,0,1-.927.309,1.656,1.656,0,0,1-.927-.309L204.8,358.4v19.459a5.379,5.379,0,0,0,5.56,5.251h28.88a5.379,5.379,0,0,0,5.56-5.251V358.4Z" transform="translate(1103.444 -202.66)" fill="#1890ff"/>
    <path id="路径_1287" data-name="路径 1287" d="M238.526,210.118v-.778a4.624,4.624,0,0,0-4.67-4.54H209.47a4.624,4.624,0,0,0-4.67,4.54v.778l16.863,10.247Z" transform="translate(1107.072 -54.974)" fill="#a7b9ff"/>
  </g>
</svg>
