<svg xmlns="http://www.w3.org/2000/svg" xmlns:xlink="http://www.w3.org/1999/xlink" width="37.238" height="37.238" viewBox="0 0 37.238 37.238">
  <defs>
    <linearGradient id="linear-gradient" x1="0.641" y1="-0.45" x2="-0.29" y2="0.72" gradientUnits="objectBoundingBox">
      <stop offset="0" stop-color="#388606"/>
      <stop offset="1" stop-color="#d3eac4"/>
    </linearGradient>
  </defs>
  <g id="修复" transform="translate(-64 -64)">
    <path id="路径_6788" data-name="路径 6788" d="M406.648,480a1.331,1.331,0,0,0-1.332,1.332,16.007,16.007,0,0,1-15.987,15.987c-.333,0-.666-.013-1-.029A18.5,18.5,0,0,1,384,499.213a18.642,18.642,0,0,0,23.98-17.881A1.331,1.331,0,0,0,406.648,480Z" transform="translate(-306.742 -398.749)" fill="url(#linear-gradient)"/>
    <path id="路径_6789" data-name="路径 6789" d="M358.33,66.659a1.33,1.33,0,1,0,0-2.659,18.652,18.652,0,0,0-5.329.769,18.522,18.522,0,0,1,4.334,1.92C357.664,66.672,358,66.659,358.33,66.659Zm4.4,4.978,2.56-2.556L362,65.787l-2.465,2.46A18.857,18.857,0,0,1,362.735,71.638Zm3.11,15.184,1.095.366,8.251-8.236-3.3-3.291-4.942,4.932-.766-.258a18.814,18.814,0,0,1-.341,6.487ZM353.4,97.8a1.33,1.33,0,1,0-.82,2.531c.142.046.283.087.425.133a18.6,18.6,0,0,0,4.334-1.92A16.015,16.015,0,0,1,353.4,97.8Z" transform="translate(-275.743)" fill="url(#linear-gradient)"/>
    <path id="路径_6790" data-name="路径 6790" d="M69.462,87.182a18.6,18.6,0,0,0-4.555,18.906,1.331,1.331,0,0,0,1.266.918,1.3,1.3,0,0,0,.412-.066,1.332,1.332,0,0,0,.858-1.674A15.964,15.964,0,0,1,81.66,84.419,18.6,18.6,0,0,0,77.326,82.5a18.154,18.154,0,0,0-1.932.694A18.617,18.617,0,0,0,69.462,87.182Zm10.258,9.5-9.9,9.887a4.658,4.658,0,0,0,6.594,6.581l9.9-9.883,3.847,1.284a18.78,18.78,0,0,0,.341-6.481l-4.176-1.4-1.653-4.931,2.377-2.372a18.575,18.575,0,0,0-3.2-3.386l-5.783,5.77Zm-6.6,11.532a1.165,1.165,0,1,1,1.649,1.645L73.117,111.5a1.165,1.165,0,1,1-1.649-1.645" transform="translate(0 -17.73)" fill="url(#linear-gradient)"/>
  </g>
</svg>
