<svg xmlns="http://www.w3.org/2000/svg" width="39.628" height="39.621" viewBox="0 0 39.628 39.621">
  <g id="离线" transform="translate(0 0.001)">
    <path id="路径_6805" data-name="路径 6805" d="M188.718,187.688l-1.006,1.006a11.528,11.528,0,0,0,0,16.283l5.142,5.142a1.547,1.547,0,0,0,2.192,0l3.452-3.452a1.548,1.548,0,1,0-2.189-2.189l-2.356,2.356-4.052-4.049a8.426,8.426,0,0,1,0-11.9l1.006-1.006a8.426,8.426,0,0,1,11.9,0l4.049,4.046-2.281,2.282a1.548,1.548,0,0,0,2.189,2.189l3.374-3.374a1.547,1.547,0,0,0,0-2.192L205,187.685A11.524,11.524,0,0,0,188.718,187.688Zm24.552,10.457L209.9,201.52a1.548,1.548,0,1,0,2.189,2.189l2.281-2.282,4.049,4.046a8.427,8.427,0,0,1,0,11.9l-1.006,1.006a8.427,8.427,0,0,1-11.9,0l-4.046-4.049,2.356-2.356a1.548,1.548,0,0,0-2.189-2.189l-3.452,3.452a1.555,1.555,0,0,0,0,2.192l5.142,5.142a11.524,11.524,0,0,0,16.283,0l1.006-1.006a11.528,11.528,0,0,0,0-16.283l-5.142-5.142A1.559,1.559,0,0,0,213.27,198.145Z" transform="translate(-184.346 -184.321)" fill="#a6a6a6"/>
    <path id="路径_6806" data-name="路径 6806" d="M221.9,221.847a1.549,1.549,0,0,0,0-2.189L207.8,205.564a1.548,1.548,0,1,0-2.189,2.189l14.091,14.091a1.547,1.547,0,0,0,2.189,0Zm2.433-21.2,1.121-4.188a1.55,1.55,0,1,0-2.993-.8l-1.121,4.188a1.55,1.55,0,0,0,2.994.8ZM231,202.01l-4.188,1.121a1.55,1.55,0,0,0,.8,2.994L231.8,205a1.55,1.55,0,1,0-.8-2.993Zm-31.1,19.277-4.188,1.121a1.55,1.55,0,0,0,.8,2.994l4.188-1.121a1.55,1.55,0,1,0-.8-2.993Zm3.281,5.476-1.121,4.188a1.55,1.55,0,0,0,2.993.8l1.121-4.188a1.55,1.55,0,0,0-2.993-.8Z" transform="translate(-193.943 -193.894)" fill="#a6a6a6"/>
  </g>
</svg>
