<svg xmlns="http://www.w3.org/2000/svg" width="44.516" height="47.001" viewBox="0 0 44.516 47.001">
  <g id="组_6558" data-name="组 6558" transform="translate(20626.333 -22343.634)">
    <path id="路径_6794" data-name="路径 6794" d="M256.066,214.056l-.09.048a8.422,8.422,0,0,0-.705-1.22l.055-.03a2.409,2.409,0,0,0,1.292-2.095v-19.7a2.406,2.406,0,0,0-1.291-2.1l-18.2-9.849a2.735,2.735,0,0,0-2.582,0l-6.333,3.429a3.094,3.094,0,0,1,.179.988,3.407,3.407,0,0,1-2.893,3.322,3.615,3.615,0,0,1-4-2.076,3.244,3.244,0,0,1,1.463-4.064,3.739,3.739,0,0,1,4.524.624l6.321-3.42a4.313,4.313,0,0,1,4.06,0l18.2,9.849a3.788,3.788,0,0,1,2.031,3.3v19.7A3.781,3.781,0,0,1,256.066,214.056Zm-29.4-31.431a.632.632,0,0,1-.036-.061,2.052,2.052,0,0,0-2.482-.734,1.826,1.826,0,0,0-1.116,2.2,1.985,1.985,0,0,0,2.176,1.339,1.9,1.9,0,0,0,1.712-1.838A1.809,1.809,0,0,0,226.664,182.624Zm-7.449,4.793-2.864,1.55a2.406,2.406,0,0,0-1.287,2.1v19.7a2.4,2.4,0,0,0,1.291,2.095l18.2,9.849a2.739,2.739,0,0,0,2.582,0l2.275-1.236a8.516,8.516,0,0,0,.776,1.182l-2.317,1.254a4.313,4.313,0,0,1-4.06,0l-18.2-9.849a3.78,3.78,0,0,1-2.031-3.3v-19.7a3.788,3.788,0,0,1,2.031-3.3l2.865-1.552a.768.768,0,0,1,1.011.254.671.671,0,0,1-.271.948Zm24.4,11.378c0-.013-.008-.02-.008-.032a.566.566,0,0,1,.172-.537.6.6,0,0,1,.262-.143.64.64,0,0,1,.635.143l3.339,3.13-.241.225-10.857,10.179-3.568-3.347a.663.663,0,0,0-.749-.107.581.581,0,0,0-.32.644c0,.019.01.019.01.035a.3.3,0,0,0,.054.127,2.5,2.5,0,0,1-1.12,3.048,2.882,2.882,0,0,1-3.415-.367,2.456,2.456,0,0,1-.357-3.207,2.843,2.843,0,0,1,3.261-1.02.446.446,0,0,0,.091.033.651.651,0,0,0,.73-.263.565.565,0,0,0-.1-.727l-5.365-5.029,4.552-4.267a.565.565,0,0,0,.115-.7.646.646,0,0,0-.688-.3c-.014,0-.02.008-.034.008a.34.34,0,0,0-.137.051,2.838,2.838,0,0,1-3.246-1.052,2.455,2.455,0,0,1,.392-3.2,2.881,2.881,0,0,1,3.416-.334,2.491,2.491,0,0,1,1.087,3.055.571.571,0,0,0,.211.735.664.664,0,0,0,.808-.066l4.62-4.326,5.592,5.242a.576.576,0,0,1,0,.84,1.205,1.205,0,0,1-.719.115,2.866,2.866,0,0,0-2.9.595,2.454,2.454,0,0,0-.252,3.346,2.859,2.859,0,0,0,3.49.732,2.505,2.505,0,0,0,1.292-3.128.324.324,0,0,1-.054-.13Z" transform="translate(-20839.912 22166.223)" fill="#facc14"/>
  </g>
</svg>
