<svg xmlns="http://www.w3.org/2000/svg" xmlns:xlink="http://www.w3.org/1999/xlink" width="34.908" height="37.48" viewBox="0 0 34.908 37.48">
  <defs>
    <linearGradient id="linear-gradient" x1="0.5" x2="0.5" y2="1" gradientUnits="objectBoundingBox">
      <stop offset="0" stop-color="#0972fe"/>
      <stop offset="1" stop-color="#87b5f2"/>
    </linearGradient>
  </defs>
  <path id="首页-防御" d="M113.486,3.525a1.508,1.508,0,0,0-.922-.207,8.954,8.954,0,0,1-5.3-.622A24.436,24.436,0,0,0,97.118,0H95.5a21.782,21.782,0,0,0-9.683,2.7,9.981,9.981,0,0,1-5.533.622,1.508,1.508,0,0,0-.922.207,1.047,1.047,0,0,0-.461.829v9.953c0,9.746,7.147,18.662,16.83,23.016a.761.761,0,0,0,.922,0c9.913-4.147,17.06-13.271,17.06-23.016V4.354C113.948,3.94,113.717,3.732,113.486,3.525Zm-5.3,18.869a16.657,16.657,0,0,1-1.614,2.7c-2.767,3.732-6.225,7.257-10.144,8.709V18.662H83.285a20.481,20.481,0,0,1-.692-5.391V6.843s1.383-.415,3.228-.829S89.74,4.354,91.585,3.94A21.529,21.529,0,0,1,96.2,3.318V18.662h12.911c.461,0-.692,3.525-.922,3.732Z" transform="translate(-78.905)" fill="url(#linear-gradient)"/>
</svg>
