<svg xmlns="http://www.w3.org/2000/svg" xmlns:xlink="http://www.w3.org/1999/xlink" width="64.188" height="64.187" viewBox="0 0 64.188 64.187">
  <defs>
    <linearGradient id="linear-gradient" x1="0.5" x2="0.5" y2="1" gradientUnits="objectBoundingBox">
      <stop offset="0" stop-color="#0972fe"/>
      <stop offset="1" stop-color="#87b5f2"/>
    </linearGradient>
  </defs>
  <g id="组_9122" data-name="组 9122" transform="translate(19345.201 -9258)">
    <path id="路径_6922" data-name="路径 6922" d="M32.093,32.094,0,32.094A32.093,32.093,0,1,0,32.093,0,32.094,32.094,0,0,0,0,32.094Z" transform="translate(-19345.201 9258)" fill="url(#linear-gradient)"/>
    <g id="组_9120" data-name="组 9120" transform="translate(0.515)">
      <path id="镜像_1_" data-name="镜像 (1)" d="M117.241,132.819c-.681,0-1.234.783-1.234,1.749v7.578c0,.966.552,1.749,1.234,1.749s1.234-.783,1.234-1.749v-7.578C118.474,133.6,117.922,132.819,117.241,132.819Zm0-13.479c-.681,0-1.234.783-1.234,1.749v7.578c0,.966.552,1.749,1.234,1.749s1.234-.783,1.234-1.749v-7.578C118.474,120.123,117.922,119.34,117.241,119.34Zm0,26.376c-.681,0-1.234.783-1.234,1.749v7.578c0,.966.552,1.749,1.234,1.749s1.234-.783,1.234-1.749v-7.578C118.474,146.5,117.922,145.716,117.241,145.716Z" transform="translate(-19430.863 9152.027)" fill="#fff"/>
      <g id="整体组件" transform="translate(-19491.785 9089.29)">
        <path id="路径_6923" data-name="路径 6923" d="M155.488,631.359a.627.627,0,0,1,.89-.433l7.814,4.4,7.814-4.4a.627.627,0,0,1,.89.432.956.956,0,0,1-.342,1.127l-8.089,4.552a.547.547,0,0,1-.548,0l-8.089-4.552A.956.956,0,0,1,155.488,631.359Z" transform="translate(0 -425.19)" fill="#fff"/>
        <path id="路径_6924" data-name="路径 6924" d="M155.488,485.073a.627.627,0,0,1,.89-.432l7.814,4.4,7.814-4.4a.626.626,0,0,1,.89.432.956.956,0,0,1-.342,1.127l-8.089,4.552a.546.546,0,0,1-.548,0L155.83,486.2A.956.956,0,0,1,155.488,485.073Z" transform="translate(0 -283.456)" fill="#fff"/>
        <path id="路径_6925" data-name="路径 6925" d="M163.932,192.08a.546.546,0,0,1,.548,0l8.088,4.552a.96.96,0,0,1,0,1.559l-8.088,4.552a.546.546,0,0,1-.548,0l-8.088-4.552a.96.96,0,0,1,0-1.559Zm-6.154,5.332,6.428,3.619,6.428-3.619-6.428-3.619Z" transform="translate(-0.013 0)" fill="#fff"/>
      </g>
      <g id="整体组件-2" data-name="整体组件" transform="translate(-19463.844 9089.29)">
        <path id="路径_6923-2" data-name="路径 6923" d="M155.488,631.359a.627.627,0,0,1,.89-.433l7.814,4.4,7.814-4.4a.627.627,0,0,1,.89.432.956.956,0,0,1-.342,1.127l-8.089,4.552a.547.547,0,0,1-.548,0l-8.089-4.552A.956.956,0,0,1,155.488,631.359Z" transform="translate(0 -425.19)" fill="#fff"/>
        <path id="路径_6924-2" data-name="路径 6924" d="M155.488,485.073a.627.627,0,0,1,.89-.432l7.814,4.4,7.814-4.4a.626.626,0,0,1,.89.432.956.956,0,0,1-.342,1.127l-8.089,4.552a.546.546,0,0,1-.548,0L155.83,486.2A.956.956,0,0,1,155.488,485.073Z" transform="translate(0 -283.456)" fill="#fff"/>
        <path id="路径_6925-2" data-name="路径 6925" d="M163.932,192.08a.546.546,0,0,1,.548,0l8.088,4.552a.96.96,0,0,1,0,1.559l-8.088,4.552a.546.546,0,0,1-.548,0l-8.088-4.552a.96.96,0,0,1,0-1.559Zm-6.154,5.332,6.428,3.619,6.428-3.619-6.428-3.619Z" transform="translate(-0.013 0)" fill="#fff"/>
      </g>
    </g>
  </g>
</svg>
