<svg xmlns="http://www.w3.org/2000/svg" xmlns:xlink="http://www.w3.org/1999/xlink" width="64.188" height="64.187" viewBox="0 0 64.188 64.187">
  <defs>
    <linearGradient id="linear-gradient" x1="0.5" x2="0.5" y2="1" gradientUnits="objectBoundingBox">
      <stop offset="0" stop-color="#0972fe"/>
      <stop offset="1" stop-color="#87b5f2"/>
    </linearGradient>
  </defs>
  <g id="组_9121" data-name="组 9121" transform="translate(19430.547 -9258)">
    <path id="路径_457" data-name="路径 457" d="M32.093,32.094,0,32.094A32.093,32.093,0,1,0,32.093,0,32.094,32.094,0,0,0,0,32.094Z" transform="translate(-19430.547 9258)" fill="url(#linear-gradient)"/>
    <path id="镜像_1_" data-name="镜像 (1)" d="M133.567,123.42h-7.141a3.939,3.939,0,0,0-3.935,3.935v21.422a3.939,3.939,0,0,0,3.935,3.935h7.141a3.939,3.939,0,0,0,3.935-3.935V127.354A3.939,3.939,0,0,0,133.567,123.42ZM134,148.777a.438.438,0,0,1-.437.437h-7.141a.438.438,0,0,1-.437-.437V127.354a.438.438,0,0,1,.437-.437h7.141a.438.438,0,0,1,.437.437Zm-24.919-24.92h-7.141a3.939,3.939,0,0,0-3.935,3.935v21.422a3.939,3.939,0,0,0,3.935,3.935h7.141a3.94,3.94,0,0,0,3.935-3.935V127.792A3.94,3.94,0,0,0,109.085,123.857Zm.437,25.357a.438.438,0,0,1-.437.437h-7.14a.438.438,0,0,1-.437-.437V127.792a.438.438,0,0,1,.437-.437h7.141a.438.438,0,0,1,.437.437v21.422Zm8.234-16.394a1.749,1.749,0,0,0-1.749,1.749v7.578a1.749,1.749,0,1,0,3.5,0v-7.578A1.75,1.75,0,0,0,117.756,132.819Zm0-13.479a1.749,1.749,0,0,0-1.749,1.749v7.578a1.749,1.749,0,1,0,3.5,0v-7.578A1.75,1.75,0,0,0,117.756,119.34Zm0,26.376a1.749,1.749,0,0,0-1.749,1.749v7.578a1.749,1.749,0,0,0,3.5,0v-7.578A1.75,1.75,0,0,0,117.756,145.716Z" transform="translate(-19516.209 9152.027)" fill="#fff"/>
  </g>
</svg>
