<svg xmlns="http://www.w3.org/2000/svg" xmlns:xlink="http://www.w3.org/1999/xlink" width="64.188" height="64.187" viewBox="0 0 64.188 64.187">
  <defs>
    <linearGradient id="linear-gradient" x1="0.5" x2="0.5" y2="1" gradientUnits="objectBoundingBox">
      <stop offset="0" stop-color="#0972fe"/>
      <stop offset="1" stop-color="#87b5f2"/>
    </linearGradient>
  </defs>
  <g id="组_9124" data-name="组 9124" transform="translate(19182.201 -9258)">
    <path id="路径_6932" data-name="路径 6932" d="M32.093,32.094,0,32.094A32.093,32.093,0,1,0,32.093,0,32.094,32.094,0,0,0,0,32.094Z" transform="translate(-19182.201 9258)" fill="url(#linear-gradient)"/>
    <path id="镜像_1_" data-name="镜像 (1)" d="M117.241,132.819c-.681,0-1.234.783-1.234,1.749v7.578c0,.966.552,1.749,1.234,1.749s1.234-.783,1.234-1.749v-7.578C118.474,133.6,117.922,132.819,117.241,132.819Zm0-13.479c-.681,0-1.234.783-1.234,1.749v7.578c0,.966.552,1.749,1.234,1.749s1.234-.783,1.234-1.749v-7.578C118.474,120.123,117.922,119.34,117.241,119.34Zm0,26.376c-.681,0-1.234.783-1.234,1.749v7.578c0,.966.552,1.749,1.234,1.749s1.234-.783,1.234-1.749v-7.578C118.474,146.5,117.922,145.716,117.241,145.716Z" transform="translate(-19267.191 9152.027)" fill="#fff"/>
    <g id="报告" transform="translate(-19297.854 9216.457)">
      <path id="路径_6929" data-name="路径 6929" d="M432.016,609.675a.6.6,0,0,0-.842.842l1.5,1.5a.594.594,0,0,0,.421.174.6.6,0,0,0,.421-.174l3-3a.6.6,0,1,0-.842-.842l-2.577,2.579Z" transform="translate(-299.696 -532.509)" fill="#fff"/>
      <path id="路径_6930" data-name="路径 6930" d="M139.743,65H126a.6.6,0,0,0-.6.6V81.677a.6.6,0,0,0,.6.6h13.748a.6.6,0,0,0,.6-.6V65.6A.6.6,0,0,0,139.743,65Zm-.6,16.082H126.592V66.19h12.556V81.082Z" transform="translate(0)" fill="#fff"/>
      <path id="路径_6931" data-name="路径 6931" d="M297.3,244.69h7.745a.6.6,0,1,0,0-1.19H297.3a.6.6,0,0,0,0,1.19Zm0,3.275h4.583a.6.6,0,1,0,0-1.19H297.3a.6.6,0,0,0,0,1.19Z" transform="translate(-167.991 -175.051)" fill="#fff"/>
    </g>
    <g id="报告-2" data-name="报告" transform="translate(-19267.785 9216.457)">
      <path id="路径_6929-2" data-name="路径 6929" d="M432.016,609.675a.6.6,0,0,0-.842.842l1.5,1.5a.594.594,0,0,0,.421.174.6.6,0,0,0,.421-.174l3-3a.6.6,0,1,0-.842-.842l-2.577,2.579Z" transform="translate(-299.696 -532.509)" fill="#fff"/>
      <path id="路径_6930-2" data-name="路径 6930" d="M139.743,65H126a.6.6,0,0,0-.6.6V81.677a.6.6,0,0,0,.6.6h13.748a.6.6,0,0,0,.6-.6V65.6A.6.6,0,0,0,139.743,65Zm-.6,16.082H126.592V66.19h12.556V81.082Z" transform="translate(0)" fill="#fff"/>
      <path id="路径_6931-2" data-name="路径 6931" d="M297.3,244.69h7.745a.6.6,0,1,0,0-1.19H297.3a.6.6,0,0,0,0,1.19Zm0,3.275h4.583a.6.6,0,1,0,0-1.19H297.3a.6.6,0,0,0,0,1.19Z" transform="translate(-167.991 -175.051)" fill="#fff"/>
    </g>
  </g>
</svg>
