<svg xmlns="http://www.w3.org/2000/svg" xmlns:xlink="http://www.w3.org/1999/xlink" width="64.188" height="64.187" viewBox="0 0 64.188 64.187">
  <defs>
    <linearGradient id="linear-gradient" x1="0.5" x2="0.5" y2="1" gradientUnits="objectBoundingBox">
      <stop offset="0" stop-color="#0972fe"/>
      <stop offset="1" stop-color="#87b5f2"/>
    </linearGradient>
  </defs>
  <g id="组_9123" data-name="组 9123" transform="translate(19263.201 -9258)">
    <path id="路径_6928" data-name="路径 6928" d="M32.093,32.094,0,32.094A32.093,32.093,0,1,0,32.093,0,32.094,32.094,0,0,0,0,32.094Z" transform="translate(-19263.201 9258)" fill="url(#linear-gradient)"/>
    <path id="镜像_1_" data-name="镜像 (1)" d="M117.241,132.819c-.681,0-1.234.783-1.234,1.749v7.578c0,.966.552,1.749,1.234,1.749s1.234-.783,1.234-1.749v-7.578C118.474,133.6,117.922,132.819,117.241,132.819Zm0-13.479c-.681,0-1.234.783-1.234,1.749v7.578c0,.966.552,1.749,1.234,1.749s1.234-.783,1.234-1.749v-7.578C118.474,120.123,117.922,119.34,117.241,119.34Zm0,26.376c-.681,0-1.234.783-1.234,1.749v7.578c0,.966.552,1.749,1.234,1.749s1.234-.783,1.234-1.749v-7.578C118.474,146.5,117.922,145.716,117.241,145.716Z" transform="translate(-19347.852 9152.027)" fill="#fff"/>
    <g id="bug" transform="translate(-19332.279 9216.102)">
      <path id="路径_6926" data-name="路径 6926" d="M95.27,270.509h-3.3v-2.23a3.1,3.1,0,0,0,3.1-3.1.179.179,0,0,0-.178-.178H93.553a.179.179,0,0,0-.178.178,1.4,1.4,0,0,1-1.405,1.405H79.479a1.4,1.4,0,0,1-1.405-1.405A.179.179,0,0,0,77.9,265H76.558a.179.179,0,0,0-.178.178,3.1,3.1,0,0,0,3.1,3.1v2.23h-3.3a.179.179,0,0,0-.178.178v1.249a.179.179,0,0,0,.178.178h3.3v2.141c0,.145,0,.29.016.43a4.285,4.285,0,0,0-2.6,3.941.179.179,0,0,0,.178.178H78.32a.179.179,0,0,0,.178-.178,2.674,2.674,0,0,1,1.329-2.313,6.089,6.089,0,0,0,.506,1.093,6.276,6.276,0,0,0,2.241,2.241,6.25,6.25,0,0,0,6.3,0,6.273,6.273,0,0,0,2.748-3.334,2.676,2.676,0,0,1,1.327,2.313.179.179,0,0,0,.178.178h1.249a.179.179,0,0,0,.178-.178,4.285,4.285,0,0,0-2.6-3.941c.009-.143.016-.285.016-.43v-2.141h3.3a.179.179,0,0,0,.178-.178v-1.249A.179.179,0,0,0,95.27,270.509Zm-5,3.747a4.551,4.551,0,0,1-3.7,4.472v-8.843a.179.179,0,0,0-.178-.178H85.055a.179.179,0,0,0-.178.178v8.843a4.494,4.494,0,0,1-1.447-.542,4.547,4.547,0,0,1-2.255-3.93v-5.977h9.1Z" transform="translate(0 -196.517)" fill="#fff"/>
      <path id="路径_6927" data-name="路径 6927" d="M296.178,68.818h1.249a.179.179,0,0,0,.178-.178A3.373,3.373,0,0,1,297.987,67,2.515,2.515,0,0,1,299,65.987a3.4,3.4,0,0,1,1.639-.381H301a3.372,3.372,0,0,1,1.639.381A2.515,2.515,0,0,1,303.648,67a3.4,3.4,0,0,1,.381,1.639.179.179,0,0,0,.178.178h1.249a.179.179,0,0,0,.178-.178,5,5,0,0,0-.578-2.411,4.11,4.11,0,0,0-1.65-1.65A5,5,0,0,0,301,64h-.357a5,5,0,0,0-2.411.578,4.111,4.111,0,0,0-1.65,1.65A5,5,0,0,0,296,68.639.179.179,0,0,0,296.178,68.818Z" transform="translate(-215.093)" fill="#fff"/>
    </g>
    <g id="bug-2" data-name="bug" transform="translate(-19300.391 9216.102)">
      <path id="路径_6926-2" data-name="路径 6926" d="M95.27,270.509h-3.3v-2.23a3.1,3.1,0,0,0,3.1-3.1.179.179,0,0,0-.178-.178H93.553a.179.179,0,0,0-.178.178,1.4,1.4,0,0,1-1.405,1.405H79.479a1.4,1.4,0,0,1-1.405-1.405A.179.179,0,0,0,77.9,265H76.558a.179.179,0,0,0-.178.178,3.1,3.1,0,0,0,3.1,3.1v2.23h-3.3a.179.179,0,0,0-.178.178v1.249a.179.179,0,0,0,.178.178h3.3v2.141c0,.145,0,.29.016.43a4.285,4.285,0,0,0-2.6,3.941.179.179,0,0,0,.178.178H78.32a.179.179,0,0,0,.178-.178,2.674,2.674,0,0,1,1.329-2.313,6.089,6.089,0,0,0,.506,1.093,6.276,6.276,0,0,0,2.241,2.241,6.25,6.25,0,0,0,6.3,0,6.273,6.273,0,0,0,2.748-3.334,2.676,2.676,0,0,1,1.327,2.313.179.179,0,0,0,.178.178h1.249a.179.179,0,0,0,.178-.178,4.285,4.285,0,0,0-2.6-3.941c.009-.143.016-.285.016-.43v-2.141h3.3a.179.179,0,0,0,.178-.178v-1.249A.179.179,0,0,0,95.27,270.509Zm-5,3.747a4.551,4.551,0,0,1-3.7,4.472v-8.843a.179.179,0,0,0-.178-.178H85.055a.179.179,0,0,0-.178.178v8.843a4.494,4.494,0,0,1-1.447-.542,4.547,4.547,0,0,1-2.255-3.93v-5.977h9.1Z" transform="translate(0 -196.517)" fill="#fff"/>
      <path id="路径_6927-2" data-name="路径 6927" d="M296.178,68.818h1.249a.179.179,0,0,0,.178-.178A3.373,3.373,0,0,1,297.987,67,2.515,2.515,0,0,1,299,65.987a3.4,3.4,0,0,1,1.639-.381H301a3.372,3.372,0,0,1,1.639.381A2.515,2.515,0,0,1,303.648,67a3.4,3.4,0,0,1,.381,1.639.179.179,0,0,0,.178.178h1.249a.179.179,0,0,0,.178-.178,5,5,0,0,0-.578-2.411,4.11,4.11,0,0,0-1.65-1.65A5,5,0,0,0,301,64h-.357a5,5,0,0,0-2.411.578,4.111,4.111,0,0,0-1.65,1.65A5,5,0,0,0,296,68.639.179.179,0,0,0,296.178,68.818Z" transform="translate(-215.093)" fill="#fff"/>
    </g>
  </g>
</svg>
